REM The 12 Days of Christmas
PLAY "MNT150L8O2CCL4CL8FFL4FL8EFGAA+GL4A.L8A+L4>CL8D<A+AFL4G"
PLAY "L2F.L8CCL4CL8FFL4FL8EFGAA+GL4A.>CL8<GAL4A+L8AA+L4>CL8D"
PLAY "<A+AFL4GL2F.L8CCL4CL8FFL4FL8EFGAA+GL4A.>CL8<GAL4A+>CL8<G"
PLAY "AL4A+L8AA+L4>CL8D<A+AFL4GL2F.L8CCL4CL8FFL4FL8EFGAA+GL4A."
PLAY ">CL8<GAL4A+>CL8<GAL4A+>CL8<GAL4A+L8AA+L4>CL8D<A+AFL4G"
PLAY "L2F.L8CCL4CL8FFL4FL8EFGAA+GL4A.L2>CL4D<B.L1>CL8C<A+AG"
PLAY "L4FA+DFL8GFEDL4CL8AA+L4>CL8D<A+AFL4GL2F.L8CCCCFFL4FL8E"
PLAY "FGAA+GL2AL8>CC<GAA+GL2>CL4D<B.L1>CL8C<A+AGL4FA+DFL8GF"
PLAY "EDL4CL8AA+L4>CL8D<A+AFL4GL2F.L8CCCCFFL4FL8EFGAA+GL2AL8>C"
PLAY "C<GAA+G>CC<GAA+GL2>CL4D<B.L1>C"

