REM Andre
PLAY "MST255L2O2GBD.L8>C+DEDC<B>C<BAGL4GL16GF+AGL8F+P8P4L2F+"
PLAY "AD.L8B>CDC<BAGF+>EDL4CL16C<B>DCL8<BP8P4L4G.L8BL4>DDL2D"
PLAY "<F+L4GAB>CL2<BL4AP4L2GBD.L8>C+DEDC<B>C<BAGL4GL16GF+AG"
PLAY "L8F+P8P4L2F+AD.L8B>CDC<BAGF+>EDL4CL16C<B>DCL8<BP8P4L4G."
PLAY "L8BL4>DDL2D<F+L4GAB>CL2<BL4AP4L2F+AD+.L8A+B>C<BA+BL4>F+"
PLAY "<BB.L8>EL4GP4L2<EGC+.L8G+ABAG+AL4>E<A>F+.L8DL4<AL8G+A"
PLAY "BAG+AL4>E<AL8>F+DAF+DP8P4L4F+P4EP4L2DL8DD+EDC<BAGL4F+"
PLAY "A>C.L8<AL4F+P4A.L8F+DDEF+L2GBD.L8>C+DEDC<B>C<BAGL4GL16G"
PLAY "F+AGL8F+P8P4L4AL16AG+BAL8GP8P4P8EF+G+AB>CDL4D+EF+G<B."
PLAY "L8>DL4C.L8<AL2GL4>G.L8DL4<B.L8>DL4C.L8<AL2BL4B.L8>GL4D."
PLAY "L8<BL4>C.L8<AL4GP4L8>EDEDL4GP4L8C<B>C<AL4GP4BP4L2G"

