REM Bach II
PLAY "MNT200L8O3FC<AGA>C<FA>CD+DCD<A+FEFA+DFA>C<A+AA+GEDEGC"
PLAY "EGA+AGAGFEFACEFAGF<FD<BAB>D<GB>DFEDO3C<GEDEGCEGA+AG<G"
PLAY "EC+<B>C+E<A>C+EGFEO3D<AFEFADFA>C<A+AA+GEDEGCEGA+AGAFD"
PLAY "C+DF<B>DFAGFGEC+<B>C+E<A>C+EGFED<AFEFADFA>C<A+A>D<A+G"
PLAY "F+GA+DGA+>DC+<B>C+<A+GFGA+DG>CEDC>D<AFEFADFA>C<A+A>FD"
PLAY "<A+AA+>D<FA+>DFED<D<BG+F+G+BEG+B>DC+<BO3AEC+<B>C+E<A>C+"
PLAY "EGF+E<C<AF+EF+ADF+A>C<BAO3GD<BAB>D<GB>DFD+DD+C<AGA>C<F"
PLAY "A>CD+DCD<A+GF+GA+D+GA+>DC<A+>C<AF+EF+ADF+A>C<A+AGD<A+"
PLAY "AA+>D<GA+>DFEDC<GEDEGCG>CEDCFC<AGA>C<F>CFAGFAAFEFADFA"
PLAY ">C<A+AG>D<A+AA+>D<GA+>DFEDEGEDEGCEGA+AG>C<AFEFADFA>C<A+"
PLAY "AA+GEDEGCEGA+AGAFC<A+>CF<A>CD+GFD+<FD<A+AA+>D<FA+>DFE"
PLAY "DEC<A+AA+>E<GA+>EGFEAGFEFADFD<A+G>EF<A+AGAA+L2E"

