REM Bach III
PLAY "MNT150L8O2DAFDAFDAFDAFDA+GDA+GDA+GDA+GC+GEC+GEC+A+GEA"
PLAY "GFDFAFA>D<A>DFDFBFEDC<BAG+F+E>D<B>C<EC<A>EC<G>D+C<G>D+"
PLAY "C>AD+DC<A+AGF+ED>C<AA+>D<A+G>GO1FEO3DC<A+AGA>C<AF>FO1E"
PLAY "DO3C<A+AGFGA+AGFEFDFA>D<G>C+EC+<A>EC+<A>EC+<AA+AG>EC+"
PLAY "<G>EC+<G>EC+<GAGF>D<A+F>D<A+F>D<A+F>D<A+F+>C<AF+>C<AF+"
PLAY ">C<AF+>C<AA+GF+GDGA+GDA+GDD+GF+GA+GD+A+GD+A+GC+A+GC+A+"
PLAY "GC+AGFAFDAFDAFDC+DEGE<A+>GE<A+>GEC+<A>GL16FDC<A+L8AL16G"
PLAY "FEFADFA>DC<A+AGFEDFA>DFADFADFADFA>DFAFDFD<B>D<G+BAG+L8C+"
PLAY "EC+<AL16>DC<A+AL8O3FEE.DDC<A>D<A+G>C<AF+A+GEAF+DGEC+L2F+."
PLAY ""

