REM Star Spangled Banner
PLAY "MNT150L8O3D+.L16CL4<G+>CD+L2G+L8>C.L16<A+L4G+CDL2D+L8D+"
PLAY "D+L4>C.L8<A+L4G+L2GL8FGL4G+G+D+C<G+L8>D+.L16CL4<G+>CD+"
PLAY "L2G+L8>C.L16<A+L4G+CDL2D+L8D+D+L4>C.L8<A+L4G+L2GL8FGL4G+"
PLAY "G+D+C<G+L8O4CCL4CC+D+L2D+L8C+CL4<A+>CC+L2C+L8C+C+L4C."
PLAY "L8<A+L4G+L2GL8FL16G.L4G+CDL2D+L8D+D+L4G+G+L8G+GL4FFFA+"
PLAY "L8>C+C<A+G+L4G+G.P8L8D+D+L4G+.L8A+>CC+L2D+L8<G+A+L4>C."
PLAY "L8C+L4<A+L2G+."

