REM Bare Necessities
PLAY "MNT200L4O2CDFP4L2AL4G+AL8GL4F.FGFGFGL8FL4D.CF.L8CL4FA"
PLAY ">DC<A+AL1GP4L4>CDCP4L2DL4CDL8CL4<A.FGFGF>DL8<FL4F.GA."
PLAY "L8>CL4<A>C<AFDCL1FP4L4FL8E.L16EL4DL2CG.L4GL8G.L16FL4E"
PLAY "L1FP4L4FL8E.L16EL4DL2CG.L4GFGL1AP4L4AA+>CL8DDL2DL4<A+"
PLAY "AGAA+>CDC<AGAA+>CL8DDL2DL4<A+AGFEL1F"

