REM Leave it to Beaver
PLAY "MNT150L8O2CL4FL8A>C<AFL4GL8A+L4>DL8C<B>CFL4DL8<A+L4G."
PLAY "P16L8CL4FL8A>C<AFL4GL8A+L4>DL8C<B>CFD<GEL4F.P8>AL8AL4G."
PLAY "L8FGFL4D+L8EDD+EFGG+L4A.P8O1GL8GL4F.L8EFEL4C+L8DDEFG>G"
PLAY "<G>C<A+AG.P16>CL4FL8A>C<AFL4GL8A+L4>DL8C<B>CFL4DL8<A+"
PLAY "L4G.P16L8>CL4FL8A>C<AFL4GL8A+L4>DL8C<B>CFD<GEL4F.L8>F"
PLAY ""

