REM Oh Little Town of Bethlehem
PLAY "MNT150L4O2BP64BP64BA+B>DC<EAGL8F+GL4ADL2B.P64L4BP64BP64"
PLAY "B>EDP64DC<EAGL8F+GL4BAL2G.L4BP64BP64BAGL2F+P64L4F+P64"
PLAY "F+EF+GAL2B.P64L4BP64BP64BA+B>DC<E>ED<GB.L8AL2G.P4L4BP64"
PLAY "BP64BA+B>DC<EAGL8F+GL4ADL2B.P64L4BP64BP64B>EDP64DC<EA"
PLAY "GL8F+GL4BAL2G.L4BP64BP64BAGL2F+P64L4F+P64F+EF+GAL2B.P64"
PLAY "L4BP64BP64BA+B>DC<E>ED<GB.L8AL2G.P4L4BP64BP64BA+B>DC<E"
PLAY "AGL8F+GL4ADL2B.P64L4BP64BP64B>EDP64DC<EAGL8F+GL4BAL2G."
PLAY "L4BP64BP64BAGL2F+P64L4F+P64F+EF+GAL2B.P64L4BP64BP64BA+"
PLAY "B>DC<E>ED<GB.L8AL2G.P4L4BP64BP64BA+B>DC<EAGL8F+GL4ADL2B."
PLAY "P64L4BP64BP64B>EDP64DC<EAGL8F+GL4BAL2G.L4BP64BP64BAGL2F+"
PLAY "P64L4F+P64F+EF+GAL2B.P64L4BP64BP64BA+B>DC<E>ED<GB.L8A"
PLAY "L2G."

