REM Brahm's Lullabye
PLAY "MNT150L8O3EEL2GL8EEL2GL8EGL4>C<BAAGL8DEL4FDL8DEL2FL8D"
PLAY "FBAL4GBL2>CL8<CCL4>C.L8C<AFL2GL8CCL4FGAEGL8CCL2>CL8<A"
PLAY "FL2GL8ECL4FEDL2C.P2L8EEL2GL8EEL2GL8EGL4>C<BAAGL8DEL4F"
PLAY "DL8DEL2FL8DFBAL4GBL2>CL8<CCL4>C.L8C<AFL2GL8CCL4FGAEGL8C"
PLAY "CL2>CL8<AFL2GL8ECL4FEDL2C."

