REM Cabaret
PLAY "MNT200L4O2A+L2>CL4D+GL2A+L4B>C<A+GL1A+P4L4>CL2<A+L4GL2A+"
PLAY ">CL1<G.P4L4>CL2D+L4CL2D+CL4DL2<A+L1GP4L4GL2A+L4GL2A+C"
PLAY "L1G.P4L4<A+L2>CL4D+GL2A+L4B>C<A+GL1A+P4L4>CL2<A+L4GL2A+"
PLAY ">CL1<G.P4L4>CL2D+L4CL2D+CL4DL2<A+L1GP4L4GL2A+L4GL2A+C"
PLAY "L1D+P4L4D+D.L8D+L1BP4L4D+D.L8D+L1A+P4L4GF+GL2>D+D+L4D+"
PLAY "CDD+DD+FD+D<A+G+F<A+L2>CL4D+GL2A+L4B>C<A+GL1A+L4B>CL2<A+"
PLAY "L4GL2A+>CL1C+.P4L4C.L2D+L4CL2D+CL4D.L2FL1<A+L4>CL2D+L4C"
PLAY "L2D+L4D+L1D+P2L4<D+D.L8D+L1BP4L4D+D.L8D+L1A+P4L4GF+GL2>D+"
PLAY "D+L4D+CDD+DD+FD+D<A+G+F<A+L2>CL4D+GL2A+L4B>C<A+GL1A+L4B"
PLAY ">CL2<A+L4GL2A+>CL1C+.P4L4C.L2D+L4CL2D+CL4D.L2<A+L1GL4>C"
PLAY "L2D+L4CL2D+CL4DL2F<A+.B>CL1D+L2CL1D+D+D+.P4"

