REM CAPRICCI
PLAY "MLT150L4O4GF+L8GL16F+GL8<G>EDGL64DC+DC+L16DL8CL64<BA+"
PLAY "BA+L16BABL8G>EDGL64DC+DC+L16DL8CL64<BA+BA+L16BABL8G>B"
PLAY "A<AG>GL64F+FF+FL16F+EF+L8DGF+DL64ED+ED+L16EDC+L8DL16C+"
PLAY "D<A>AG+A<A>GF+G<A>F+EF+<A>EDE<A>AG+A<A>GF+G<A>F+EF+<A"
PLAY ">EDEL4<AP8L8>EADC+DL4EP8L8EAD<A>GL16F+DGEADGEF+DEC+L8D"
PLAY "<AF+>F+EC+<G>GF+D<A>A<B>BGEL64C+CC+CL16C+<B>C+L8<A>AL16A+"
PLAY "DC+DL8F+GL16ADC+DL8EFL16GDC+DL8EGL16F<AG+AL8>DFL16D+<G"
PLAY "F+GL8>EDGAF+EL4F+EDP4"

