REM Santa Clause is Coming to Town
PLAY "MNT150L4O2GL8EFL4GG.L8GABL4>CL2CL8<EFL4GGGL8AGL4FL2FL4E"
PLAY "GCEDL2FL4<BL2>CL8GEFL4GG.L8GABL4>CL2CL8<EFL4GGGL8AGL4F"
PLAY "L2FL4EGCEDL2FL4<BL1>CL4>CDC<B>C<AL2AL4>CDC<B>CL2<A.L4>D"
PLAY "EDC+D<BBBL8B>CL4DC<BAGP4G.L8GEFL4GG.L8GABL4>CL2CL8<EF"
PLAY "L4GGGL8AGL4FL2FL4EGCEDL2FL4>DL1C."

