REM The Song of the Columbia
PLAY "MNT150L8O2D.L16DL4GL8G.L16GL4AL8>D.L16CL8<BL4G.P8DEL8>E"
PLAY "DC<BAGP64L2GL4F+P8L8AL4AL8AAL4AL8B>C+DL4<AP4>DL8C+<BA"
PLAY "GF+EAC+L2DP8L8DF+L4AL8AAGF+EDP64DL4GP4L8GAL4BL8BB>C<B"
PLAY "AGL2AP8L8GBL4>DL8DDC<BAGF+L4EP4L8>EDC<BAGL4F+L8EF+G.P8"
PLAY "F+GL4AL8A.L16AL4AL8>DCL4<B.P4L8F+GL4AL8AAL4AL8>DCL4<B."
PLAY "P4L8GBL4>DL8DDC<BAGF+L4EP4L8>EDC<BAGL4F+L8EF+G.P8"

