REM She'll Be Coming Around the Mountain When She Comes
PLAY "MNT150L8O2DEL16GL8G.G.L16GL8ED<B>DL4GP2L8GAL16BL8B.B."
PLAY "L16BL8>D<BAGL2AP2L8>D.L16C<BL8B.B.L16BL8AGGGL16EL8E.E."
PLAY "L16EL8AGF+EL16DL8D.G.L16AL8BAEF+L2GL8DEL16GL8G.G.L16G"
PLAY "L8ED<B>DL4GP2L8GAL16BL8B.B.L16BL8>D<BAGL2AP2L8>D.L16C"
PLAY "<BL8B.B.L16BL8AGGGL16EL8E.E.L16EL8AGF+EL16DL8D.G.L16A"
PLAY "L8BAEF+L2G"

