REM Oh Come All Ye Faithful
PLAY "MNT150L8O2G.P16L2GL4DGL2ADL4BAB>CL2<BL4AL8G.P16L2GL4F+"
PLAY "EF+GABL2F+L4E.L16D.P32L2D.>DL4C<BL2>C<BL4ABGAF+.L8EL4D"
PLAY "L8G.P16L4GF+GAL2GL4DL8B.P16L4BAB>CL2<BL4AB>C<BAGL2F+L4G"
PLAY ">CL2<BL4A.L16G.P32L2G.L8G.P16L2GL4DGL2ADL4BAB>CL2<BL4A"
PLAY "L8G.P16L2GL4F+EF+GABL2F+L4E.L16D.P32L2D.>DL4C<BL2>C<B"
PLAY "L4ABGAF+.L8EL4DL8G.P16L4GF+GAL2GL4DL8B.P16L4BAB>CL2<B"
PLAY "L4AB>C<BAGL2F+L4G>CL2<BL4A.L16G.P32L2G."

