REM Dixie
PLAY "MNT150L16O3GEL8CCL16CDEFL8GGGEAAA.L16GL8A.L16GABCDL4E."
PLAY "L16C<GL4>C.L16<GEL4G.L16DEL4CP8L16GEL8CCL16CDEFL8GGGE"
PLAY "AAA.L16GL8A.L16GAB>CDL4E.L16C<GL4>C.L16<GEL4G.L16DEL4C."
PLAY "L16GABL8>CED.L16CL8<AL4>CL8<AL4>D.L8<AL4>D.L16<GABL8>C"
PLAY "ED.L16CL8<ABC.L16AL8GE>C.L16<EL8EL4DL8EL4C.L8EL4D.L8A"
PLAY "GE>C.L16EL8DL4CL8<EL4C.L8EL4D.L8AGEL4>E.L16CL8DL4C"

