REM The Elephant Walk
PLAY "MNT150L8O2F.L16>AL8CFAGFD<B>CL4CL2CL8<F.L16AL8>CFAGFD"
PLAY "L2C.L8D<G+L2G+.L8G+>D<G+FL2F.L8FL16AL8>CFAGFD<B>CL4CC."
PLAY "L8CL4GGL8ECCCL4FFL16D+FD+CL8<A+G+L4BBL16A+BA+G+L8FCD+"
PLAY "FL4FL8F.L16>AL8CFAGFD<B>CL4CL2CL8<F.L16AL8>CFAGFDL2C."
PLAY "L8D<G+L2G+.L8G+>D<G+FL2F.L8FL16AL8>CFAGFD<B>CL4CC.L8C"
PLAY "L4GGL8ECCCFL4FL16D+FD+CL8<A+G+L4BBL16A+BA+G+L8FCL4D+L8F"
PLAY "L4F"

