REM Exodus
PLAY "MNT100L8O1GL4>C.L8GL4F.L8CD+FD.L16<A+L4>C.L8GL4A+.L8A"
PLAY "A+>C<A.L16FL2GP8L8GA+>DC.L16<GL4G.L8>C<G>CD.L16<GL2GL8F"
PLAY "GG+A+G.L16D+L8FGD+.L16CL2D.P8L8GL4C.L8GL4F.L8CD+FD.L16<A+"
PLAY "L4>C.L8GL4A+.L8AA+>C<A.L16FL2GP8L8GA+>DC.L16<GL4G.L8>C"
PLAY "<G>CD.L16<GL2GL8FGG+A+G.L16FL8D+FDA+L2>CP4L4CL16<A+>C"
PLAY "<A+GL2A+P8L8G>CDL4F.L8D+DCL16<A+>C<A+GL2A+P8L8G>CDL4G."
PLAY "L8FD.L16CL1D."

