REM Fantasy, by Bach
PLAY "MNT100L16O4D<AFAFD>D<AFAFDEAEC+EC+<A>C+E<A+AGFA>D<A>D"
PLAY "FDFAFA>DC+EDC+<BAGA+AGFEFAGFEDC<A+AA+>DGFEDCG<A+A>CFC"
PLAY "<AF>DFEDC<A+AGF+GA+>EDC+<BA>E<GFA>D<AFD>D<A+AGF+G>D<A"
PLAY "GFEF>D<GFED+E>D<FEDC+D<A+>C+D>D<F+G<A>C+D>D<EF<G>C+D>D"
PLAY "<D+E<FA>DFA>D<A+AGFEDC+DE<A+AGFA>D<EG>C+L2D"

