REM  FIRST TIME
PLAY "MNT200L4O1A+>D+L2D+L4DD+L2>CL4<A+D+L2FL4D+L2F.L4<A+>D+"
PLAY "L2D+L4DD+L2>CL4<A+FL2A+L4FL2A+.L4D+>CL2CL4<B>CL2FL4D<A+"
PLAY "L2>DL4<A+L2G.L4DD+L2D+L4DD+L2>CL4<DL1D+.L4GA+L1>FP4L4E"
PLAY "D+DC+.L8CL2C.L4<FGG+L8A+L2>DP8L8<A+GL2A+L4GG+G.L8FL1F"
PLAY "P4P8L4<A+>D+L2D+L4DD+L2>CL4<A+D+L2FL4D+L2F.L4<A+>D+L2D+"
PLAY "L4DD+L2>CL4<A+FL2A+L4FL2A+.L4D+>CL2CL4<B>CL2FL4D<A+L2>D"
PLAY "L4<A+L2G.L4DD+L2D+L4DD+L2>CL4<DL1D+."

