REM Flash Dance Theme
PLAY "MNT150L2O3E.L8DCL2D.L8DEL2F.L8EEEDL2CL8DCL2A.L8GFL2G."
PLAY "L8FGFEL2DL4CL2D.L8CDL2E.L8DCL2D.L8DEL2F.L8EEEDL4CP4L8D"
PLAY "CL2A.L8GFL2G.L8FGFEL4DL8>DCL4CL8DDL2D.P4L4CL8CCP4DDL4D"
PLAY "P4L8<CDL2E.L8DCL4DL2<GL8>DDL2F.L8EDEDL2CL8DCL2A.L8>C<A"
PLAY "L2G.L8FEFEL4DL8>DCL4CP4CDP8L8<GBL4>CCL8C<BL4BL8BAL4AG"
PLAY "L8GBL4>CCL8C<BL4BL8BAL4AGL8GB>CL4CDL8CL4<BL8>CL4C.L8D"
PLAY "L4<GG.P4L8GB>CCL4<AL8>C<BL4BL8BAAAL4>DCL8CCL4<AL8>C<B"
PLAY "L4BL8BAL4AL8GB>CL4C.L8DCL4<BL8>CL4C.L8D<GL4GG>C<BL8BB"
PLAY "AAL4AGL8GBL4>CCL8C<BL4BL8BAL4AGL8GBL4>CCL8C<BL4BL8BAL4A"
PLAY "GL8GBL4>CCL8C<BL4BL8BAL4AGL8GBL1C"

