REM Fugue in D, by Bach
PLAY "MNT150L16O4AGL2AP8L16GFEDL8C+L4D.P2L16<AGL2AP16L8EFC+"
PLAY "L4D.P2L16<AGL2AP16L16GFEDL8C+L4D.P2L8<D>C+EGA+>C+EL64<D"
PLAY "GA>D<DGA>D<DGA>D<DGA>D<DGA>D<DGA>D<DGA>D<DGA>D<DGA>D<D"
PLAY "GA>D<DGA>D<DGA>D<DEA>D<DEA>D<DEA>D<DEA>D<DEA>D<DEA>D<D"
PLAY "EA>D<DEA>D<DEA>D<DEA>D<DEA>D<DEA>D<DF+A>D<DF+A>D<DF+A"
PLAY ">D<DF+A>D<DF+A>D<DF+A>D<DF+A>D<DF+A>D<DF+A>D<DF+A>D<D"
PLAY "F+A>D<DF+A>D"

