REM G Minor, by Bach
PLAY "MNT150L4O4A+AGADDGL8<GAA+>CL4DL8<DC<A+AL4O4D+L8FD+DCL4D"
PLAY "L8D+DC<A+L4>CL8DC<A+>CL4<AL8DC<A+AL4O4A+AGADDGL8<GAA+"
PLAY ">CL4DL8<DC<BAL4O4FL8GFD+DL4D+L8FD+DCL4DGCL1<A+L4>A+AG"
PLAY "ADDGL8<GAA+>CL4DL8<DC<A+AL4O4D+L8FD+DCL4DL8D+DC<A+L4>C"
PLAY "L8DC<A+>CL4<AL8DC<A+AL4O4A+AGADDGL8<GAA+>CL4DL8<DC<BA"
PLAY "L4O4FL8GFD+DL4D+L8FD+DCL4DGCL1<A+L4>DL8<A+>CDEL4FGAA+"
PLAY "L8GAA+GL4AL8GAL4FL8<FGAA+>CDL4D+DCF<A+AA+DCGL8>DCL4D<G"
PLAY "L8>D+DL4D+L8<G>D<F+>C<GA+L4AL8<AGF+E>DEF+GAA+L4>C<A+A"
PLAY "L8A+L16>CDL4<GF+L1GL4>DL8<A+>CDEL4FGAA+L8GAA+GL4AL8GA"
PLAY "L4FL8<FGAA+>CDL4D+DCF<A+AA+DCGL8>DCL4D<GL8>D+DL4D+L8<G"
PLAY ">D<F+>C<GA+L4AL8<AGF+E>DEF+GAA+L4>C<A+AL8A+L16>CDL4<G"
PLAY "F+L1G"

