REM She's a Grand Ole' Flag
PLAY "MNT200L8O4D+GL4A+A+A+A+L8F.L16GL8G+AA+P8A+GL4D+D+D+L8C"
PLAY "<A+>D+L4FL8DL4D+L8C<A+L4>D+L8C<A+L4>D+L8C<A+L2>DP4L8A+"
PLAY "GL4D+D+D+L8C<A+>D+L4FL8DL4D+L8DC+L4CL8EGL4>C<A+L2G+P4"
PLAY "L4<A+>D+.L8DL4D+GF.L8D+L4FL8A+B>CL4D+L8CL4D+DL2D+.P2L8<A+"
PLAY "GL4D+D+D+L8C<A+>D+L4FL8DL4D+L8C<A+L4>D+L8C<A+L4>D+L8C"
PLAY "<A+L2>DP4L8A+GL4D+D+D+L8C<A+>D+L4FL8DL4D+L8DC+L4CL8EG"
PLAY "L4>C<A+L2G+P4L4<A+>D+.L8DL4D+GF.L8D+L4FL8A+B>CL4D+L8C"
PLAY "L4D+DL2D+.P16L32D+"

