REM Gypsy Song
PLAY "MNT100L16O1G>GA+>DL8EDL16O1F>FA>DL8EDL16O1E>FA>C+L8EC+"
PLAY "L16DFED<AFED<G>GA+>DEDEDO1F>FA>DEDEDO1E>GA>C+EC+EC+L8D"
PLAY "<AFDL16<G>GA+>DL8EDL16O1F>FA>DL8EDL16O1E>FA>C+L8EC+L16D"
PLAY "FED<AFED<G>GA+>DEDEDO1F>FA>DEDEDO1E>GA>C+EC+EC+L8D<AF"
PLAY "D>C<A+>C<A+A+AL4AL8AGAGGFL4FL8EE>C<A+A+AL4AL8AA>FC+ED"
PLAY "L4D"

