REM HABANERA
PLAY "MNT150L4O1D.L16A.L8>F.<A.L4D.L16A.L8>F.<A.L4D.L16A.L8>F."
PLAY "<A.L4D.L16A.L8O4D.C+.L4C.L16C.L8<B.A+.L4A.L16A.L8G+.G."
PLAY "L16FGFE.F.L8G.F.L32DL4E.L8>D.C+.L4C.L16C.L8<B.A+.L4A."
PLAY "L16A.L8G.F.L16EFED.E.L8F.E.L4D.L8>D.C+.L4C.L16C.L8<B."
PLAY "A+.L4A.L16A.L8G+.G.L16FGFE.F.L8G.F.L32DL4E.L8>D.C+.L4C."
PLAY "L16C.L8<B.A+.L4A.L16A.L8G.F.L16EFED.E.L8F.E.L4D.L16A."
PLAY "L8D.E.L4F+.L16A.L8F+.E.L4D.L16E.L8F+.G.L32F+L16A.L32F+"
PLAY "L16A.L32F+L16A.L32F+L16A.L32GL8B.L32F+L8A.L32EL4G.L16B."
PLAY "L8E.F+.L32EL4G.L16B.L8G.F+.L4E.L16F+.L8G.A.L32GL16B.L32G"
PLAY "L16B.L32GL16B.L32GL16B.L32AL8>C+.L32<GL8B.L32F+L4A.L16A."
PLAY "L8>D.E.L32DL4F+.L16<A.L8F+.E.L4D.L16E.L8F+.G.L32F+L16A."
PLAY "L32F+L16A.L32F+L16A.L32F+L16A.L32BL2>D.L16C+DC+L32<EL4G."
PLAY "L16B.L8>E.F+.L32EL4G.L16<B.L8G.F+.L4E.L16F+.L8G.A.L16>C+."
PLAY "<B.G+.A.L1>F+L16EF+EL8D.P8L16A.L8>D."

