REM HAPHOTEL
PLAY "MNT255L4O3CCCCCDC<AFFF>FFGFL2D.L4DE.L8EL4DDCCC<BA+A+A"
PLAY "GL2AP8L16>CL8C.L16CL4CCDC<AFFF>FFGFDFFDL2C.L4<AA+>DC<A+"
PLAY "L1AP4L2>FL4FL1DP4L4FGFL1C.P4L4DF.L8FL4FFFDEFGFEDCCCCC"
PLAY "CDC<AFFF>FFGFL2D.L8D.L16DL4EEDDC+C+CL8C.L16CL4<A+A+AG"
PLAY "L2AL4>C.L8CL4CCDC<AFFF>FFGFDFFDL2C.L4<AA+>CDEL1FP4L4F"
PLAY "FDL1C.L2<AA+>CDEL1F."

