REM Here Comes Santa Clause
PLAY "MNT200L4O2CAL8GGL4FCAL8GGL4FCA+L8A+A+L4AL1A+L4CL8A+A+"
PLAY "L4AL8GGL4CA+AL8GGL4C>CC<BL1>CL4DFEDCEDC<A+A+L8>D.C.<A+."
PLAY "L1AL4>DFEL8DDL4CED<AL8>CCL4<A+AGL1FL4CAL8GGL4FCAL8GGL4F"
PLAY "CA+L8A+A+L4AL1A+L4CL8A+A+L4AL8GGL4CA+AL8GGL4C>CC<BL1>C"
PLAY "L4DFEDCEDC<A+A+L8>D.C.<A+.L1AL4>DFEL8DDL4CED<AL8>CCL4<A+"
PLAY "AGL1F"

