REM  Home for the Holidays
PLAY "MNT150L4O2EFL2GL4ECL2>CL4<BAGFL1EL4CDL2EL4D+EAGFED>C<B"
PLAY "AGFEFL2GL4EC>DC<BA>C<EL1GL4>DC<BGAFGEFDL1CL4CFGA>CC<B"
PLAY ">DCC.L8<BL4>DC<BAL2GL4EFGGF+GBAGFL1EL4CFGA>CC<B>DCC.L8<B"
PLAY "L4>DC<BAL2GL4GAB>DDEDC<B.L8AL4GGGAGFEFL2GL4ECL2>CL4<B"
PLAY "AGFL1EL4CDL2EL4D+EAGFED>C<BAGFEFL2GL4EC>DC<BA>C<EL1GL4>D"
PLAY "C<BGAFGEFDCGGGL2GP4L4EFL2GL4ECL2>CL4<BAGFL1EL4CDL2EL4D+"
PLAY "EAGFED>C<BAGFEFL2GL4EC>DC<BA>C<EL1GL4>DC<BGAFGEFDL1CL4C"
PLAY "FGA>CC<B>DCC.L8<BL4>DC<BAL2GL4EFGGF+GBAGFL1EL4CFGA>CC"
PLAY "<B>DCC.L8<BL4>DC<BAL2GL4GAB>DDEDC<B.L8AL4GGGAGFEFL2GL4E"
PLAY "CL2>CL4<BAGFL1EL4CDL2EL4D+EAGFED>C<BAGFEFL2GL4EC>DC<B"
PLAY "A>C<EL1GL4>DC<BGAFL2GEL1F>DC."

