REM Invention 1.4, by Bach
PLAY "MNT100L32O3A+>CDCL16<A+>FDA+FDL32FD+DD+L16F<A+>D<FG+G"
PLAY "L32D+FGFL16D+A+G>D+<A+GL32A+G+GG+L16A+D+GCD+<AL32>CDD+"
PLAY "DL16CAF>C<A>D+L32<FGAGL16F>C<A>FCL4DP4P16L32GFD+FL16G"
PLAY "L8CP8P16L32FD+DD+L16FL8<A+P8P16L32D+DCDL16D+AL32>C<A+"
PLAY "AA+L16>CL8<FP8>F<FA>CL4FP4P8L8<FA+>DL4FP4P8L8<GA+>CL4E"
PLAY "P4P16L32<FGAGL16F>C<A>FCAL32D+DCDL16D+<A>C<F+AL8A+>D<A+"
PLAY "GG+>F<AFL16GL32CDD+DL16CGD+>C<G>DL32<G+GFGL16G+DF<B>G"
PLAY "L8D+P8P16L32CDD+DL16CL8>C.L16<A+G+L32FGG+GL16FL8>F.L16D+"
PLAY "DL32<A+>CDCL16<A+L8>A+.L16G+GL32A+G+GG+L16A+D+L32GFD+"
PLAY "FL16GCL32D+DCDL16D+<AL32>CDD+DL16CFL32<G+GFGL16G+GL32A+"
PLAY ">CDCL16<A+>D+L32<GFD+FL16GFL32AA+>C<A+L16A>DL32<FD+DD+"
PLAY "L16FD+L32GAA+AL16G>CL32<D+DCDL16D+DP8P16L32A+>CDCL16<A+"
PLAY ">FDA+FDL32FD+DD+L16F<A+>D+<A+>D+<GL32D+FGFL16D+A+G>D+"
PLAY "<A+GL32A+G+GG+L16A+L8D+>D+L16D+L32D+DCDL16D+L8<D+>D+L16D+"
PLAY "L32CDD+DL16CFL32DC<A+>CL16D<FA+>C<G+L2A+"

