REM Bach's Invention
PLAY "MNT255L8O2FP8AP8FP8>CP8<FP8>FP8EDCDC<A+AA+AGFP8AP8>CP8"
PLAY "<AP8>FP8CP8A>C<A+>C<A>C<A+>C<A>C<A+>C<FAGAFAGAFAGADFE"
PLAY "FDFEFDFEF<BP8GP8>DP8<BP8>FP8DP8GAGFEFEDCDC<A+AP8>DC<B"
PLAY ">C<BAGAGFEFEDCP8>C<B>CP8<EP8FP8>CP8<EP8>CP8<DP8BP8L2>C"
PLAY "P2P4L8CP8EP8CP8GP8CP8>CP8<BAGAGFEFEDC<A+>CACA<A+>ACA<A"
PLAY "P8A+P8GP8A+P8GP8>DP8<GP8>GP8FD+DD+DC<A+>C<A+AGP8A+P8>D"
PLAY "P8<A+P8>GP8DP8A+P8C+P8A+P8C+P8A+P8C+P8DP8<AP8>FP8DP8A"
PLAY "P8FP8GFGA+CA+DA+EA+CA+FEFA<B>AC+ADA<B>AEDEG<A>G<B>GC+"
PLAY "G<A>GFP8DP8<A+P8>DP8<GP8L4>FL8EP8CP8<AP8>CP8<FP8L4>D+"
PLAY "L8DFD+FDFD+FDFD+F<A+>DCD<A+>DCD<A+>DCD<GA+AA+GA+AA+GA+"
PLAY "AA+EP8CP8GP8EP8A+P8GP8>CDC<A+AA+AGFGFD+DP8GFEFEDCDC<A+"
PLAY "AA+AGFP8>FEFP8<AP8A+P8>FP8<AP8>FP8<GP8>EP8L1F"

