REM The Theme from The Sting (part II)
PLAY "MNT255L8O2G+D+G+>CL4D+L8<GD+GA+L4>D+.P8L8<G+D+G+>CL4D+"
PLAY "L8<GD+GA+L4>D+.P8L8<D+P8G+B>EP8D+P8D+P8<G+B>EP8D+P4O0G+"
PLAY "G+B>G+<G+>G+B>G+<G+>G+B>G+<G+>G+B>G+L4G+G+G+L8G+L4G+L8D+"
PLAY "FCD+L4F<G+L8A+BG+A+L4>CL8<G+>C<G+L4A+G+P4G+G+G+L8G+L4G+"
PLAY "L8D+FCD+L4FL8<G+G+A+BG+A+L4>CL8<G+>C<G+L4A+G+"

