REM Joy to the World
PLAY "MNT150L4O3DL8C+.L16<BL4A.L8GL4F+ED.L8AL4B.L8BL4>C+.L8C+"
PLAY "L2DP16L8DDC+<BAA.L16GL8F+>DDC+<BAA.L16GL8F+F+F+F+F+L16F+"
PLAY "GL4A.L16GF+L8EEEL16EF+L4G.L16F+EL8DL4>DL8<BA.L16GL8F+"
PLAY "GL4F+EL2DL4>DL8C+.L16<BL4A.L8GL4F+ED.L8AL4B.L8BL4>C+."
PLAY "L8C+L2DP16L8DDC+<BAA.L16GL8F+>DDC+<BAA.L16GL8F+F+F+F+"
PLAY "F+L16F+GL4A.L16GF+L8EEEL16EF+L4G.L16F+EL8DL4>DL8<BA.L16G"
PLAY "L8F+GL4F+EL2D"

