REM The King of Siam
PLAY "MNT150L8O3DEFGAFL4AL8G+EL4G+L8GD+L4GL8DEFGAFA>DC<AFAL2>C"
PLAY "L8<DEFGAFL4AL8G+EL4G+L8GD+L4GL8DEFGAFA>D<AFA>DL2<DL8A"
PLAY "B>C+DEC+L4EL8FC+L4FL8EC+L4EL8<AB>C+DECL4EL8FC+L4FL2EL8<A"
PLAY "B>C+DEC+L4EL8FC+L4FL8EC+L4EL8<AB>C+DECL4EL8FC+L4FL2EL8<D"
PLAY "EFGAFL4AL8G+EL4G+L8GD+L4GL8DEFGAFA>DC<AFAL2>CL8<DEFGA"
PLAY "FL4AL8G+EL4G+L8GD+L4GL8DEFGAFA>D<AFA>DL2<D"

