REM Let It Snow
PLAY "MNT200L8O2CC>CCL4<A+AGFL2CL8CCL4G.L8FL4G.L8FL4EL2CL4D"
PLAY "L8>DDL4C<A+AL2G.L8>EDL4CL8C<A+L4AL8AGL2F.L4CL8>CCL4<A+"
PLAY "AGFL2CL8CCL4G.L8FL4G.L8FL4EL2CL4DL8>DDL4C<A+AL2G.L8>E"
PLAY "DL4CL8C<A+L4AL8AGL2F.L8EFGAL4GE>CL2<G.L8EGL4FL8FEL4DL8C"
PLAY "DL2E.L8EFL4GL8AGL4E>CL1<GL8>C<BL4ABL8ABL2>C.L4<CL8>CC"
PLAY "L4<A+AGFL2CL8CCL4G.L8FL4G.L8FL4EL2CL8DD>DDL4C<A+AL2G."
PLAY "L8>EDL4CL8C<A+L4AL8AGL2F.P8"

