REM Liebestrasa
PLAY "MNT150L8O2DB>DGBGD<B>DGBGD<B>D+F+BF+D+<B>D+F+BL16<B.L32>F+"
PLAY "L8D+<B>DG+BL16<B.L32>G+L8DCDG+>CL16O2B.L32>G+L8D<B>C+"
PLAY "EAEC+<E>C+EAL16<E.L32>EL8C+<EL16>EC+L8<F+L16>F+C+L8<G"
PLAY "L16>GC+L8<B>DF+BL16<A.L32>F+L8D<GB>DGD<BGB>DGL16<D.L32>D"
PLAY "L8<BB>DGBGD<B>DGBGD<B>D+F+BF+D+<B>D+F+BL16<B.L32>F+L8D+"
PLAY "<B>DG+BL16<B.L32>G+L8DCDG+>DL16O2B.L32>G+L8DEA>C+EC+<A"
PLAY "<E>C+EAL16<E.L32>EL8C+<E>C+<F+>C+<G>C+<B>DF+BL16<A.L32>F+"
PLAY "L8D<GB>DGD<BGB>DGD<BL2>G.L8<DB>DGBGD<B>DGBGD<B>D+F+BF+"
PLAY "D+<B>D+F+BL16<B.L32>F+L8D+<B>DG+BL16<B.L32>G+L8DCDG+>C"
PLAY "L16O2B.L32>G+L8D<B>C+EAEC+<E>C+EAL16<E.L32>EL8C+<EL16>E"
PLAY "C+L8<F+L16>F+C+L8<GL16>GC+L8<B>DF+BL16<A.L32>F+L8D<GB"
PLAY ">DGD<BGB>DGL16<D.L32>DL8<BB>DGBGD<B>DGBGD<B>D+F+BF+D+"
PLAY "<B>D+F+BL16<B.L32>F+L8D+<B>DG+BL16<B.L32>G+L8DCDG+>DL16O2B."
PLAY "L32>G+L8DEA>C+EC+<A<E>C+EAL16<E.L32>EL8C+<E>C+<F+>C+<G"
PLAY ">C+<B>DF+BL16<A.L32>F+L8D<GB>DGD<BGB>DGD<BL2>G."

