REM LIFE
PLAY "MNT200L4O2AA>CDEDC<BGGB>CEDC<BAA>CDEDCDEFEFEDC<BAA>CD"
PLAY "EDC<BGGB>CEDC<BAA>CDEDCDEFEFEDC<BL8AA>CDEDC<BGGB>CEDC"
PLAY "<BAA>CDEDCDEFEFEDC<BAA>CDEDC<BGGB>CEDC<BAA>CDEDCDEFEF"
PLAY "EDC<BL16AA>CDEDC<BGGB>CEDC<BAA>CDEDCDEFEFEDC<BAA>CDED"
PLAY "C<BGGB>CEDC<BAA>CDEDCDEFEFEDC<BP2L2AA>CDEDC<BGGB>CEDC"
PLAY "<BAA>CDEDCDEFGFL1E"

