REM Away in a Manger
PLAY "MNT150L4O2DGGL8BAL4GGDEGEL2DL4DGGABB>DD<BGL2AL4DGGL8B"
PLAY "AL4GGDEGEL2DL4DGGAB>D.P64C<DDF+L2GL8F+GL4AA>D<AAF+AGE"
PLAY "L2DL8F+GL4AA>D<AAF+L8GF+GAB>C+L2DL4ED<BL8BAL4GGDE>C<E"
PLAY "L2DL4DGGAB>D.C<DDF+L2GP16P4L4DGGL8BAL4GGDEGEL2DL4DGGA"
PLAY "BB>DD<BGL2AL4DGGL8BAL4GGDEGEL2DL4DGGAB>D.P64C<DDF+L2G"
PLAY ""

