REM  Minuet in G, by Bach, American Rabbit Song
PLAY "MNT150L4O4DL8<GAB>CL4D<GG>EL8CDEF+L4G<GG>CL8DC<BAL4BL8>C"
PLAY "<BAGL4F+L8GABGL4BL2AL4>DL8<GAB>CL4D<GG>EL8CDEF+L4G<GG"
PLAY ">CL8DC<BAL4BL8>C<BAGL4AL8BAGF+L1GL4>DL8<GAB>CL4D<GG>E"
PLAY "L8CDEF+L4G<GG>CL8DC<BAL4BL8>C<BAGL4F+L8GABGL4BL2AL4>D"
PLAY "L8<GAB>CL4D<GG>EL8CDEF+L4G<GG>CL8DC<BAL4BL8>C<BAGL4AL8B"
PLAY "AGF+L1GL4>BL8GABGL4AL8DEF+DL4GL8EF+GDL4C+L8<B>C+L4<AL8A"
PLAY "B>C+DEF+L4GF+EF+<A>C+L1DL4DL8<GF+L4G>EL8<GF+L4G>DC<BL8A"
PLAY "GF+GL4AL8DEF+GABL4>C<BAL8B>DL4<GF+L1GL4>BL8GABGL4AL8D"
PLAY "EF+DL4GL8EF+GDL4C+L8<B>C+L4<AL8AB>C+DEF+L4GF+EF+<A>C+"
PLAY "L1DL4DL8<GF+L4G>EL8<GF+L4G>DC<BL8AGF+GL4AL8DEF+GABL4>C"
PLAY "<BAL8B>DL4<GF+L1G"

