REM A Minuet in D by Bach
PLAY "MNT150L4O3AL8>FEDC+L4D<AA+L8C+EGA+AGL4FL8EFL4DFL8A+A>D"
PLAY "CL4FL8EDC<A+AL16A+>CL4<FEL2FL4AL8>FEDC+L4D<AA+L8C+EGA+"
PLAY "AGL4FL8EFL4DFL8A+A>DCL4FL8EDC<A+AL16A+>CL4<FEL2FL4>AL8<F"
PLAY ">AGFL16EFL8GL2CL4FL8<D>FEDL16C+DL8EL2<AL8AB>C+DEFGEC+"
PLAY "A+AGL16FEL8DL4EC+L2D.L4AL8<F>AGFL16EFL8GL2CL4FL8<D>FE"
PLAY "DL16C+DL8EL2<AL8AB>C+DEFGEC+A+AGL16FEL8DL4EC+L2D."

