REM Movin On Down the Road
PLAY "MNT200L4O3CD+CL8<A+L4G.FD+FF+F+D+L2F+D+L4FGFD+L2GD+L4F"
PLAY "GL8A+L4A+.GA+L2>C.L4CD+CL8<A+L4G.FD+FF+F+D+L2F+D+L4FG"
PLAY "FD+L2GD+L4FGA+A+GA+L8GL4A+.L1>CP2L8<GD+FDL1D+P4L4D+GA+"
PLAY "L2A+L4>CL1<GP4L4>CD+CL8<A+L4G.FD+FF+F+FL2D+P4L8GD+FDL1D+"
PLAY "P4L4D+GA+L2A+L4>CL1<GP4L4>CD+CL8<A+L4G.FD+FF+F+FL1D+P4"
PLAY "L4GL2A+>CD+L1<A+.P4L8GD+FDL1D+L8>D+"

