REM Theme from The Muppet Movie
PLAY "MNT200L4O3CC<ABL8AL4BG.P4>CC<ABL8AL2GP4P8L4EEGFL8EL4F"
PLAY "L8>C<CDL4EL8EL4EL8FL1GP4P8L4>CC<ABL8AL4BG.P4>CC<ABL8A"
PLAY "L2GP4P8L4EEGFL8EL4FL8>C<CDL4EL8EL4DL8DL1CL4>CDC<B>DCL2<G"
PLAY "L4>CDC<B>DL2CL4CCDC<B>DEL2<GL4GAL8AL4BL8>CL1DP4P8L4CC"
PLAY "<ABL8AL4BG.P4>CC<ABL8AL2GP4P8L4EEGFL8EL4FL8>C<CDL4EL8E"
PLAY "L4EL8CL4EAL8AL4AL8EL4A>CL8CL4CL8<AL4>CFL8FL4FL8CL4FL2<A"
PLAY "B>CDEEEEL1G."

