REM The Nutcracker Suite
PLAY "MNT255L4O4GL8GF+L4GGEDCEDL8DC+L4DD<BAGBA>D<G>D<F+>D<A"
PLAY ">D<B>D<G>D<AGAP4>GL8GF+L4GGEDCEDL8DC+L4DD<BAGBA>D<G>D"
PLAY "<F+>D<A>D<B>D<A>D<GEGP4>GL8GF+L4GGEDCEDL8DC+L4DD<BAGB"
PLAY "A>D<G>D<F+>D<A>D<B>D<G>D<AGAP4>GL8GF+L4GGEDCEDL8DC+L4D"
PLAY "D<BAGBA>D<G>D<F+>D<A>D<B>D<A>D<GEGP4"

