REM Bach's Prelude
PLAY "MNT150L16O4C<B>C<G>C<B>C<EC<B>C<G>C<B>C<GO4C<B>C<G>C<B"
PLAY ">C<AFEFCFEFD>DCD<A>DCD<BGF+GDGF+GE>EDE<B>EDEC<AG+AEAG+"
PLAY "A>C<F+EF+>C<F+EF+BGFGBGFGBEDEBEDEAF+EF+AF+EF+ADCDADCD"
PLAY "GEDEGEDEGC+<B>C+GC+<B>C+F+DC+DFDC+DGF+GDAGADBABD>C<B>C"
PLAY "<D>D<F+GAB>DEGDGCG<B>G<AGF+EL8F+BL16>CD<BCL32ABL8AL16G."
PLAY "L4GP2L16>C<B>C<G>C<B>C<A<FEFCFEFF>BABFBABG+<EDE<B>EDE"
PLAY ">AEDEAEDEG+DCDG+DCDAEDEAEDEBG+F+G+BG+F+G+>C<EBE>C<E>D"
PLAY "<DBDADBD>C<CACG+CACB<B>GEL8>CL16<AL8BAG+.L16AA<AG+AEA"
PLAY "G+A>E>EDE<B>EDECO2AG+AEAG+A>D>GFGDGFGEC<B>C<G>C<B>C<E"
PLAY "C<B>C<G>C<B>CC>C<B>C<G>C<B>C<AFEFAFEFD>DCD<A>DCD<BGF+"
PLAY "GBGF+GE>EDE<B>EDEC<AG+A>C<AG+AG>GFGDGFGEGEGFAFADFDFEG"
PLAY "EGCECEDFDF<BGAB>C<EDCDG>C<GDL4BL8FL32E>C<E>C<E>C<E>C<E"
PLAY ">C<E>C<E>C<E>C<E>C<E>C<E>C<E>C"

