REM Real Thing, Buy the World a Coke
PLAY "MNT150L8O2DL4CDFDCL8DL4F.FGAGL8AL2G.P8L4AGA>C<AGL8AL4>C."
PLAY "<AF.L8GL4FL8DL2C.P8L8DL4CDFDCL8DL4F.FGAGL8AL2G.P8L8AL4G"
PLAY "A>C<AL8GL4A>C.<AF.L8GL4FL8DL2F.P8L8DL4CDFDCL8DL4F.FGA"
PLAY "GL8AL2G.P8L8AL4GA>C<AG.L8AL4>C.<AF.L8GL4FL8DL4F.L8AL16A"
PLAY "L8A+.L4AL1FP4L8FL16FL8F.L4EL8FL1G.P4L4AGA>C<AL8GL4A>C."
PLAY "<AF.L8GL4FL8DL1F"

