REM Rubber Duck
PLAY "MNT255L4O3FF.L8DL4<A+L8GL4>D+D+.L8DL2C.P4P8L4FF.L8DL4<A+"
PLAY "L8GL4>D+D+.L8DL2C.P4P8L4<DL8C+L4DL2FL4D+.A+L1AP4L4FL8E"
PLAY "L4F.F+.G>D.L1CP4L4<A+L8AL4A+L8FL4D.D+L8FL4D+L2DL4C.L1F"
PLAY "P2P8L4FF.L8F+L4GL8F+L2FP4L4DL8C+L4DL2FL4D+.A+L1AP4L4F"
PLAY "L8EL4F.F+.G>D.L1CP4L4<A+L8AL4A+L8FL4D.D+L8FL4D+L2DL4F."
PLAY "L1A+.P8A.P4P8L4AL8G+L4AL8GL2F.L4GL8F+L4GL8FL4E.A.G+L1A"
PLAY "P4P8L4A.A+.B.>C.<B>C.L8<A+L4A.A+.AA+.L8AL4G.>C.<BL2>C."
PLAY "P8L4<FL8GL4AL8FL4GL2F.P8L4DL8C+L4DL2FL4D+.A+L1AP4L4FL8E"
PLAY "L4F.F+.G>D.L1CP4L4<A+L8AL4A+L8FL4D.D+L8FL4D+L2DL4C.P4"
PLAY "P8A+L8AL4A+L8FL4D.D+L8FL4D+L2DL4C.P4P8A+L8AL4A+L8FL4D."
PLAY "D+L8FL4D+L2DL4F.L8A+P2P8A+P2P8A+P8L4A+.L8AA+P4<A+"

