REM Theme from Sleeping Beauty
PLAY "MNT200L2O3C.<B.>CL4<AB>C<AL2BL4>DL2EL4C+L2D.D.G.F+.FL4D"
PLAY "FEDL2AL4GL2FL4EEDC+DABL2>C.<B.>CL4<AB>C<AL2BL4>DL2DL4C+"
PLAY "L2D.D.EFF+AGB>C<BAL4GL8F+GBAGEDED<BGP8L2>GAL4BL8>CP8<D+"
PLAY "EFEGP8C+DEDEP8<B>CDCEDC<B>C<AGP8>F+GAGBAGF+GD+EP8L2GA"
PLAY "L8B>CP8<D+EFEGP8C+DEDEP8<B>CDCEDC<BAGF+P8>FF+GF+BAGF+"
PLAY "EDGFEDEDC<B>C<BAGL2>C.<B.>CL4<AB>C<AL2BL4>DL2EL4C+L2D."
PLAY "D.G.F+.FL4DFEDL2AL4GL2FL4EEDC+D<ABL2>C.<B.>CL4<AB>CC+"
PLAY "L2DL4<AL2>EL4C+L8FP8O2A>C+DFAG+A>C+DFL2G+AB>DCEFEDL4C"
PLAY "P4L8O3D+EF+GB>CL2EL32<E>C<E>C<E>C<E>C<E>C<E>C<E>C<E>C"
PLAY "<E>C<E>C<E>C<E>C<E>C<E>C<E>C<E>C<E>C<E>C<E>C<E>C<E>C<E"
PLAY ">C<E>C<E>C<E>C<E>C<E>C<E>C"

