REM Sleigh Bells Ring
PLAY "MNT150L4O3DDDDEL8D<BL4GABL8AF+L4EL1DL4EF+A>DEL8D<BAGL4A"
PLAY "L8ABAGL4EL1GL4>DDDDEL8D<BL4GABL8AF+L4EL1DL4EF+A>DEL8D"
PLAY "<BAGL4AL8ABAGL4EL1GL8D+EL4BL8D+EL4BL8DEL4B>C+L1<A+L4B"
PLAY "L8A+F+L4D+L1G+L4A+L8G+EC+EL4G+BA+>C+L1<F+.L8C+DL4AL8C+"
PLAY "DL4AL8CDL4ABL2G+L4AL8G+EL4C+L1F+L4>AL8EDL4<A>DL8EAL4E"
PLAY "L8D<A>DEL4A>D<ADDDDDEL8D<GL4GABL8AF+L4EL1DL4DF+A>DEL8D"
PLAY "<BAGL4AL8ABAGL4EL1GL4>DDDDEL8D<BL4GABL8AF+L4EL1DL4EF+"
PLAY "A>DEL8D<BAGL4AL8ABAGL4EL1G."

