'Solfe, by Bach
PLAY "MNT150L16O2D+CD+G>CD+DC<BGB>DGFD+DD+CD+G>CD+DCDC<BAGFD+DD+CD+G>CD+DC<BG"
PLAY "B>DGFD+DD+CD+G>CD+DCDC<BAGFD+DD+C<GD+CO5C<GD+G+O2FA>CFG+>CD+D<A+FD<A+O4"
PLAY "A+FDGO2D+GA+>D+GA+>DC<AG+A>C<AG+A>D+C<GA>D+C<GA>DC<F+A>AC<F+A>F+C<DA>C<"
PLAY "AF+DA+O1GA+>DGA+AGF+DF+A>DC<A+AA+GA+>DGA+AGAGF+EDC<A+AA+GA+>DGA+AGF+DF+"
PLAY "A>DC<A+AA+GA+>DGA+AGAGF+EDC<A+AA+GA+>DGD<A+G<FO4GD<BGB>DGC<G>G<G>C<G>G<"
PLAY "GBG>F<GBG>F<G>D+CD+G>C<GD+CO2A+O5C<GECEG>C<FC>C<CFC>C<CECA+CECA+CG+O1F"
PLAY "G+>CFG+GFECEG>C<A+G+GG+FG+>CFG+GFGFEDC<A+G+GG+FG+>CFG+GFECEG>C<A+G+GG+F"
PLAY "G+>CFG+GFGFEDC<A+G+GG+>FC<G+F>C<G+FCG+FC<G+>FC<G+L2C+L16O4G+FEFGFEFL2O2"
PLAY "CL16>G+FEFGFEFL2O1BL16O5D<FGG+GFD+DD+G>C<GA+G+GFL4D+DL16C<G>G<G>C<G>G<G"
PLAY "BG>F<GBG>G<GA+G>E<GA+G>E<GA>D+>C<D+<A>D+>C<D+<G+F>D<FG+F>D<FG>C+A+C+<G>"
PLAY "C+A+C+<F+D+>C<D+F+D+>C<D+D+>C>C<C<D+>C>C<C<D+>CD+G>CGD+CGD+CO3G>FD<BFD+"
PLAY "<CD+G>CD+DC<BGB>DGFD+DD+CD+G>CD+DCDC<BAGFD+DD+CD+G>CD+DC<BGB>DGFD+DD+C"
PLAY "D+G>CD+D<B>C<GD+DC<GD+DC."
