REM SONATINA
PLAY "MST200L8O2B>CDL4<GL8GAGAL4BL8GB>CDL4<GL8GGF+GL4AP8L8B"
PLAY ">CDL4<GL8GGABL4>CL8EGECL4<BL8>DC<A>DL4<GP8L8B>CDL4<GL8G"
PLAY "AGAL4BL8GB>CDL4<GL8GGF+GL4AP8L8B>CDL4<GL8GGABL4>CL8EG"
PLAY "ECL4<BL8>DC<A>DL4<GP8L8GF+GAB>C+DEF+L4AL8GF+EDC+<BA>E"
PLAY "C+<GL4F+L8A>DDDL4<BL8G>DDDL4<BL8G>DDD<BGEF+GEL4DP8L8F+"
PLAY "EDL4AP8L8AGF+L4>CP8L8C<BAL4>EL8DC<BAGF+EDEF+GAA+B>CDL4<G"
PLAY "L8GAGAL4BL8GB>CDL4<GL8GGF+GL4AP8L8B>CDL4<GL8GGABL4>CL8E"
PLAY "GECL4<BL8>DC<A>DL4<GP8L8GF+GAB>C+DEF+L4AL8GF+EDC+<BA>E"
PLAY "C+<GL4F+L8A>DDDL4<BL8G>DDDL4<BL8G>DDD<BGEF+GEL4DP8L8F+"
PLAY "EDL4AP8L8AGF+L4>CP8L8C<BAL4>EL8DC<BAGF+EDEF+GAA+B>CDL4<G"
PLAY "L8GAGAL4BL8GB>CDL4<GL8GGF+GL4AP8L8B>CDL4<GL8GGABL4>CL8E"
PLAY "GECL4<BL8>DC<A>DL4<GP8L8B>CDL4<AL8A>C<BAL4GL8GGF+GEF+"
PLAY "GABAL4AL8DB>CDL4<AL8A>C<BAL4G.>GL8EL4DL8<BL4AL8>DL4<B."
PLAY ">GL8EL4DL8<B>C<A>DL4<GP8BP8G"

