REM The Sounds of Silence
PLAY "MNT180L8O3DDFFAAL1GP8L8CCCEEGGL1FP8L8FFFAA>CCL2DCP4L8<F"
PLAY "FAA>CCL2DCP4L8<FF>DL2DL8DEFL4F.L8EL4D.L2C.L8DCL1<AP8L8F"
PLAY "FFL2>C.P8L8<EFL2D.P8L8DDDFFAAL1GP8L8CCCEEGGL1FP4L8FFA"
PLAY "A>CCL4D.L2CP4L8<FFFAA>CCL4DL8DL2CP4L8<FFL4>DL8DL4D.L8D"
PLAY "EL4FL8FFEL4D.L2CL4CL8DCL1<AP8L8FFFL2>C.P8L8<EFL2D.P8L8D"
PLAY "DDFFAAL1GP8L8CCCEEGGL1FP4L8FFAA>CCL4D.L2CP4L8<FFFAA>C"
PLAY "CL4DL8DL2CP4L8<FFL4>DL8DL4D.L8DEL4FL8FFEL4D.L2CL4CL8D"
PLAY "CL1<AP8L8FFFL2>C.P8L8<EFL2D.P4L8DDFFAAL1GP4L8CCEEGGL1F"
PLAY "P4L8FFAA>CCL4D.L2CP4L8<FFAA>CCL4D.L2CP4L8<FFL2>D.EL8F"
PLAY "L4F.L8EL4D.L2CP2L4<EL8FL2F.L16FFL2>C.P8L8<EFL2D.P4L8D"
PLAY "DFFAAL1GP4L8CCEEGGL1FP4L8FFAA>CCL4D.L2CP4L8<FFAA>CCL4D."
PLAY "L2CP4L8<FFL4AL8>CCL4DL8DDDDL4EL8FFFFEL4D.L2CL8CL16DDL8C"
PLAY "L2<A.P4L8EFL2FL8FFL2>C.P8L8<EFL2D."

