REM Spoonful of Sugar Makes the Medicine Go Down, Mary Poppins
PLAY "MNT255L4O2DEF+G.L8GL4GGGF+GAL8BBL2BL4BL2B.L4>CD.L8DL4D"
PLAY "DD.L8<BL4GEL1F+P4L4F+FF+G.L8GL4F+GL2A+.L4A+B.L8BL4A+B"
PLAY "L2>C+.L4C+DP2C+DP2C+DC+DC+DP4<GEL2F+L4F+.L8FF+L4>C.<B."
PLAY "L8ABBL4BP4DL2B.L4GL8F+F+L4F+P4FL2F+DL8EEL4EP4D+EP4GEL2F+"
PLAY "L4F+.L8FF+L4>C.<B.L8ABBL4BP4DL1BL4BP8L8DL4C+DL2BAL1G"

