REM Sunset
PLAY "MNT150L4O3DGA+L8AGL4F+AL2G.D.L4DGA+L8AGL4F+AL1GP2L4G>C"
PLAY "D+L8DCL4<B>DL2C.<G.A.A.L1A+.L4G>CD+L8DCL4<B>DL2C.C+.L1D."
PLAY "P4L4<A+L2>CL4<A+AP4A+L2>CL4<A+AP4A+L2>CL4<A+>CL1D.L4D+"
PLAY "D+D+L8D+DL4CD+L2D.<A+.L4>CCCL8C<A+L4A>CL1<A+.L4>D+D+D+"
PLAY "L8D+DL4CD+L2D.<A+.L4>CCCL8C<A+L4AA+L1G."

