REM Supercalifragilisticexpialidocious
PLAY "MNT255L4O2EGGGAGGEGGAGL2GFL4GGGGAGGDGGAGL2GEL4GGGGAGG"
PLAY "G>CCDCL2C<AL4A>C<BA>C<GGEGG+ABL2>CL4CP4<GL8GGGGGGL4GL8G"
PLAY "GL4GP4<GL8GGGGGGL4GL8GGL4G>GEGGGAGGEGGAGL2F.L4GGGGGAG"
PLAY "GDGGAGL2E.L4GGGGGAGGG>CCDCL2<A.L4AAAAABAAA>DC<BAGP4L2G"
PLAY "L4EGGGAGGEGGAGL2GFL4GGGGAGGDGGAGL2GEL4GGGGAGGG>CCDCL2C"
PLAY "<AL4A>C<BA>C<GGEGG+ABL2>CC"

