REM Tiger by the Tail
PLAY "MNT200L8O2CL4EGL8FL4EDL2<AP4L8>AL4AAL8GL4FL2G.P4L4FL8F"
PLAY "L4FL8EL4DGL8GL4GL8FL4EAL8AL4AGL8AL2B.P4L8CL4EGL8FL4ED"
PLAY "L2<AP4L8>AL4AAL8GL4FL2G.P4L4FL8FL4FL8EL4DGL8GL4GL8FL4E"
PLAY "AL8AL4AGL8AL2B.P4L4>CL8CL4CL8<GL4EFL2AP4L4BL8BL4BAL8G"
PLAY "L2G.P8L8BL4>CL8CL4C.L8<GEFFL2AP8L8ABBBL4BAL8BL2>C.P4L4C"
PLAY "L8CL4CL8<GL4EFL2AP4L4BL8BL4BAL8GL2G.P8L8BL4>CL8CL4C.L8<G"
PLAY "EFFL2AP8L8ABBBL4BAL8BL2>C.P4L8<CL4EGL8FL4EDL2<AP4L8>A"
PLAY "L4AAL8GL4FL2G.P4L4FL8FL4FL8EL4DGL8GL4GL8FL4EAL8AL4AGL8A"
PLAY "L2B.P4L8CL4EGL8FL4EDL2<AP4L8>AL4AAL8GL4FL2G.P4L4FL8FL4F"
PLAY "L8EL4DGL8GL4GL8FL4EAL8AL4AGL8AL2B.P4L4>CL8CL4CL8<GL4E"
PLAY "FL2AP4L4BL8BL4BAL8GL2G.P8L8BL4>CL8CL4C.L8<GEFFL2AP8L8A"
PLAY "BBBL4BAL8BL2>C.P4L4DL8DL4DL8<AL4F+GL2BP4L8>C+C+C+L4C+"
PLAY "<BL8AL2A.P8L8>C+L4DL8DL4D.L8<AF+GGL2BP8L8B>C+C+C+L4C+"
PLAY "<BL8>C+DP8<DDDP8>D"

