REM Star Trek TOS Theme
PLAY "MNT255L1O4B.D.F.<A.P8L2GL8G>C.L2FFL4E.L8EL4C<A>DL2GP8"
PLAY "L4GL1BP4L2CL8CF.L2A+A+L4A.L8AL4FDGL2>CP8L4CL1EP1L2O3G"
PLAY ">F.L4EDC<BL2A+L1A+L2G>G.L4FEDCL2<BL1BL4A+L2A.L4B>C+DE"
PLAY "F+GL2AL1A+.L2<A+.L4>CDD+FGG+L2A+L1BL2<G>F.L4EDC<BL2A+"
PLAY "L1A+L4G+L2G>G.L4FEDCL2<BL1BL4A+L2A.L4B>CDEFEL2G.L4GL2A+."
PLAY "L4AL2GL1CL4D.F.A.L1>C"

