REM Talk to the Animals, Dr. DooLittle
PLAY "MNT150L8O2C+DEL4FL8FEFEL4DP8FL8GFEL4DL8EDEFGEG>CL2<GP8"
PLAY "L8C+DEFEFEFL4D.L8GF+GF+GL4EL8GAAAB>CD<BAL2GP8L8DDEL4F."
PLAY "L8EFAGFL4EG.L8C+DEL4F.L8EFAG.L16F+L2GP8L8EEF+L4GGL8GB"
PLAY "AGL16F+GL2AL8F+GF+L16AAL2AP8L4EL2AP8L8D+EF+L4GL8GF+GF+"
PLAY "L4EP8GL8AGF+L4EL8F+EF+GAF+A>DL2<AP8L8D+EF+L4GL8GF+GF+"
PLAY "L4EAL8AG+AGL4F+BB>C+C+DL8DC+DC+L4<B.P8EGBL2>DEL1D"

