REM VALSE
PLAY "MNT150L8O2ABL4>CCL8DEL2FL8<B>CDAGFL32EFL16EL8D+L2EL8<A"
PLAY "BL4>CCL8DEL2FL8<B>CDAG<BL2>CP4L8<ABL4>CCL8DEL2FL8<B>C"
PLAY "DAGFL32EFL16EL8D+L2EL8CDL4EEL8FGL2GL4GL8F+G>D<FL2E.L8E"
PLAY "F+G+AB>CL32<B>CL16<BL8AEBL4AL32ABL16AL8G+EFL4EL32EFL16E"
PLAY "L8C<ABL4AL8EG+B>EG+B.L16>CL32<B>CL16<BL8AEBL4AL32ABL16A"
PLAY "L8G+E>EL4EL2<AP4L8EF+G+AB>CL32<B>CL16<BL8AEBL4AL32ABL16A"
PLAY "L8G+EFL4EL32EFL16EL8C<ABL4AL8EG+B>EG+B.L16>CL32<B>CL16<B"
PLAY "L8AEBL4AL32ABL16AL8G+E>EL4EL2<AP4"

