REM Whistle While You Work
PLAY "MNT150L8O3C<A+AA+L4>C.L16CDL8C<A+AA+L4>C.L8CC<A+AG>C<A+"
PLAY "AG>C<A+AA+L4>C.L8CC<A+AA+L4>C.L16CDL8C<A+AA+L4>C.L8CC"
PLAY "<A+AG>C<A+AG>C<A+AGL4F.L8>FFD+DD+L4F.L8FFD+C+D+L4F.L8F"
PLAY "FD+C+D+FFD+C+CDCDCDCDC<A+AA+L4>C.L16CDL8C<A+AA+L4>C.L8C"
PLAY "C<A+AG>C<A+AG>C<A+AGL2F."

